# xmcd
#
# Track frame offsets:
# 150
# 22932
# 38885
# 55007
# 69655
# 93330
# 104395
# 121962
# 141385
# 153257
# 168705
# 194325
#
# Disc length: 2889 seconds
#
#
# Revision: 0
# Processed by: cddbd v1.5.1PL0 Copyright (c) Steve Scherf et al.
# Submitted via: FreeRIP 2.91 
#
DISCID=a10b470c
DTITLE=B.B. King - Sweet Sixteen
DYEAR=2002
DGENRE=Blues
TTITLE0=Everyday I Have The Blues
TTITLE1=Long Nights
TTITLE2=It's My Own Fault
TTITLE3=Mr. Pawnbroker (Mono)
TTITLE4=You've Done Lost Your Good Thing Now
TTITLE5=Catfish Blues
TTITLE6=The Evil Child
TTITLE7=Sweet Sixteen
TTITLE8=Payin' The Cost To Be The Boss
TTITLE9=How Blue Can You Get
TTITLE10=Guess Who
TTITLE11=The Thrill Is Gone
EXTD=
EXTT0=
EXTT1=
EXTT2=
EXTT3=
EXTT4=
EXTT5=
EXTT6=
EXTT7=
EXTT8=
EXTT9=
EXTT10=
EXTT11=
PLAYORDER=
